<svg xmlns="http://www.w3.org/2000/svg" xmlns:xlink="http://www.w3.org/1999/xlink" id="Layer_1" x="0px" y="0px" viewBox="0 0 256 100" style="enable-background:new 0 0 256 100;" xml:space="preserve">                            <g>                            	<path style="fill:#FDB714;" class="st1" d="M0,100L9.7,0h33.6l9.6,100H34l-1.4-16.1H20.5L19.4,100H0z M22,68.1h9l-4.4-50.6h-0.9L22,68.1z"></path>                            	<path style="fill:#FDB714;" class="st1" d="M54.2,100V0h20.1v44.4L84,15.3h21L92.2,52.1l16.2,47.9H86.9L74.2,60.1V100H54.2z"></path>                            	<rect style="fill:#FDB714;" x="109.8" class="st1" width="20.3" height="9.6"></rect>                            	<rect style="fill:#FDB714;" x="109.8" y="15.3" class="st1" width="20.3" height="84.7"></rect>                            	<polygon style="fill:#FDB714;" class="st1" points="152,45.4 152,0 131.4,0 131.4,65.9  "></polygon>                            	<polygon points="131.4,75.6 131.4,100 152,100 152,54.9  "></polygon>                            	<path d="M153.4,73.7v-34c0-8,2.3-14.4,6.8-19.2c4.5-4.7,10.7-7.1,18.6-7.1c7.9,0,14.1,2.4,18.6,7.1c4.5,4.7,6.8,11.1,6.8,19.2v34                               c0,17.5-8.5,26.3-25.4,26.3S153.4,91.2,153.4,73.7z M182.3,82.6c0.8-1.2,1.2-2.7,1.2-4.7V36.5c0-4.9-1.6-7.4-4.8-7.4                               c-3.2,0-4.8,2.5-4.8,7.4v41.4c0,2,0.4,3.6,1.2,4.7c0.8,1.2,2,1.7,3.6,1.7S181.6,83.8,182.3,82.6z"></path>                            	<path d="M211.6,92.9c-4.1-4.7-6.1-11.9-6.1-21.6V45.1c0-7.3,0.8-13.3,2.4-17.9c1.6-4.6,4.2-8,8-10.4c3.7-2.3,8.9-3.5,15.6-3.5                               c7.3,0,13.2,1.9,17.7,5.7c4.6,3.8,6.8,9.1,6.8,15.9v13h-20.6V36c0-2.2-0.3-4-0.9-5.2c-0.6-1.2-1.8-1.8-3.6-1.8c-3.3,0-5,2.4-5,7.1                               v41.1c0,1.9,0.4,3.6,1.2,4.9c0.8,1.4,2,2,3.7,2s2.8-0.7,3.7-2c0.8-1.3,1.2-3,1.1-5.1l-0.1-14.2H256v14.8c0,6.9-2.3,12.4-6.8,16.4                               c-4.5,4-10.4,6-17.6,6C222.4,100,215.7,97.6,211.6,92.9z"></path>                            </g>                        </svg>