<svg xmlns="http://www.w3.org/2000/svg" viewBox="0 0 1461.06 432.99"><defs><style>.cls-1{fill:#fff;}</style></defs><g id="Camada_2" data-name="Camada 2"><g id="Layer_1" data-name="Layer 1"><polygon class="cls-1" points="356.63 167.69 355.44 167.69 355.44 250.01 190.75 427.56 26.04 250.01 26.04 168.02 82.84 73.34 126.64 182.75 254.84 182.75 298.63 73.34 355.61 168.3 356.63 167.69 355.44 167.69 356.63 167.69 357.65 167.07 298.2 67.99 253.23 180.36 128.26 180.36 83.27 67.99 23.65 167.36 23.65 250.95 190.75 431.07 357.82 250.95 357.82 167.36 357.65 167.07 356.63 167.69"></polygon><path class="cls-1" d="M305.08,71.19h0L243.89,35.86l-6.95-4L190.74,5.17,141.09,33.84h0L76.42,71.19,76,71.4,5.48,112.13V325.8l.51.48.13.13L186.75,430.7l.79.45,3.2,1.84,3.19-1.84.79-.45L376,326V112.13Zm67.72,253-2.89,1.67L253.62,393l-.15.08L194.68,427l-3.94,2.28-4-2.28L128,393.09l-.13-.08h0L8.67,324.19V114L77.25,74.38h0l65.77-38,.1,0L190.72,8.86h0L235,34.38l6.89,4,62,35.8.37.22h0L372.8,114Z"></path><polygon class="cls-1" points="194.72 430.7 193.93 431.15 187.54 431.15 186.75 430.7 186.79 427.03 187.3 372.89 187.32 369.69 187.6 340.36 187.67 332.99 189.24 165.63 189.28 162.44 189.84 101.88 189.9 96.18 189.92 93.49 189.94 91.81 190.72 8.86 190.74 7.01 190.75 8.86 191.52 89.8 191.52 89.8 191.56 95.5 191.6 98.34 191.6 99.73 192.19 162.44 192.23 165.63 193.8 332.95 193.87 340.33 194.15 369.69 194.17 372.89 194.68 427.03 194.72 430.7"></polygon><polygon class="cls-1" points="194.04 337.25 127.52 396.11 190.21 333.19 194.04 337.25"></polygon><polygon class="cls-1" points="254.07 396 187.57 337.14 191.4 333.08 254.07 396"></polygon><polygon class="cls-1" points="243.89 35.86 241.84 38.36 193.31 97.64 192.16 99.06 191.6 99.73 189.84 101.88 140.26 162.44 137.66 165.63 71.28 246.71 69.24 249.19 8.68 323.17 7.08 325.11 8.68 323.08 67.8 247.65 69.79 245.1 134.04 163.13 136.32 160.22 188.21 94.02 189.26 92.68 189.94 91.81 191.52 89.8 234.95 34.38 236.94 31.84 243.89 35.86"></polygon><polygon class="cls-1" points="375.99 320.77 375.99 323.83 371.28 327.61 369.91 325.86 310.93 250.61 308.94 248.06 244.32 165.63 241.83 162.44 192.16 99.06 191.6 98.34 189.9 96.18 188.21 94.02 143.04 36.39 141.05 33.85 141.09 33.84 143.14 36.34 189.26 92.68 189.92 93.49 191.56 95.5 193.31 97.64 244.96 160.72 247.27 163.54 312.94 243.75 314.97 246.24 372.8 316.87 375.99 320.77"></polygon><circle class="cls-1" cx="190.74" cy="95.27" r="7.01"></circle><circle class="cls-1" cx="190.74" cy="339.14" r="7.01"></circle><circle class="cls-1" cx="190.74" cy="7.01" r="7.01"></circle><circle class="cls-1" cx="81.76" cy="71.72" r="7.01"></circle><circle class="cls-1" cx="7.02" cy="325.11" r="7.02"></circle><circle class="cls-1" cx="125.49" cy="179.75" r="8.57"></circle><circle class="cls-1" cx="254.07" cy="178.48" r="8.57"></circle><circle class="cls-1" cx="372.8" cy="113.71" r="7.01"></circle><circle class="cls-1" cx="236.88" cy="380.2" r="7.01"></circle><circle class="cls-1" cx="374.45" cy="325.11" r="7.02"></circle><path class="cls-1" d="M571.56,125.6l-15.37,86a8.64,8.64,0,0,1-2.31,4.42,8.07,8.07,0,0,1-4.35,2.37,8.46,8.46,0,0,1-5-.58,8,8,0,0,1-3.68-3.2l-30.47-50.06-30.54,50.06a7.57,7.57,0,0,1-3,2.88,8.31,8.31,0,0,1-4.06,1,8.19,8.19,0,0,1-8.14-6.92l-15.49-86h16.9l11,60.63,26.25-41.87a7.57,7.57,0,0,1,3-2.88,8.43,8.43,0,0,1,4.07-1,8.25,8.25,0,0,1,4,1,8.54,8.54,0,0,1,3.07,2.88l26.12,41.87,11-60.63Z"></path><path class="cls-1" d="M681.41,180.27a40.15,40.15,0,0,1-2.88,15.43,35.89,35.89,0,0,1-20.13,20.14,40.14,40.14,0,0,1-15.27,2.85H620.59a40.44,40.44,0,0,1-15.3-2.85,36.23,36.23,0,0,1-12.16-8,37,37,0,0,1-8-12.17,39.79,39.79,0,0,1-2.92-15.43V162.73a39.84,39.84,0,0,1,2.92-15.39,36,36,0,0,1,20.19-20.14,40.07,40.07,0,0,1,15.3-2.88h22.54a39.77,39.77,0,0,1,15.27,2.88,36.92,36.92,0,0,1,12.13,8,36,36,0,0,1,8,12.17,40.2,40.2,0,0,1,2.88,15.39Zm-16.64-17.54a24.23,24.23,0,0,0-1.57-8.93,19.34,19.34,0,0,0-11.27-11.27,24,24,0,0,0-8.8-1.56H620.59a24.21,24.21,0,0,0-8.86,1.56,20.1,20.1,0,0,0-6.88,4.42,19.43,19.43,0,0,0-4.45,6.85,24.23,24.23,0,0,0-1.57,8.93v17.54a24.24,24.24,0,0,0,1.57,8.94,19.52,19.52,0,0,0,4.45,6.85,19.93,19.93,0,0,0,6.88,4.41,24,24,0,0,0,8.86,1.57H643a24,24,0,0,0,8.87-1.57,19.93,19.93,0,0,0,6.88-4.41,19.66,19.66,0,0,0,4.45-6.85,24.24,24.24,0,0,0,1.57-8.94Z"></path><path class="cls-1" d="M782.18,217.41H706.25a8.65,8.65,0,0,1-3.32-.64,8,8,0,0,1-4.42-4.42,8.55,8.55,0,0,1-.64-3.33V125.6h16.64v75.16h67.67Z"></path><path class="cls-1" d="M877.77,142.25H811.06v75.16H794.41V134a8.36,8.36,0,0,1,.64-3.27,8.77,8.77,0,0,1,1.76-2.69,8,8,0,0,1,2.66-1.79,8.48,8.48,0,0,1,3.33-.64h75Zm-7.43,37.64H817.72V163.12h52.62Z"></path><path class="cls-1" d="M1020.92,190.39a29.38,29.38,0,0,1-1.25,8.87,26.22,26.22,0,0,1-3.3,6.94,21.74,21.74,0,0,1-4.8,5.12,29.33,29.33,0,0,1-5.7,3.46,28.78,28.78,0,0,1-11.71,2.63H929.94V200.76h64.22a9.73,9.73,0,0,0,7.45-2.82,10.5,10.5,0,0,0,2.66-7.55,12.19,12.19,0,0,0-.7-4.23,9.69,9.69,0,0,0-2-3.33,8.9,8.9,0,0,0-3.2-2.17,11.08,11.08,0,0,0-4.19-.77H955.87a29.6,29.6,0,0,1-8.7-1.44,26.19,26.19,0,0,1-8.68-4.64,25.33,25.33,0,0,1-6.66-8.39,27.57,27.57,0,0,1-2.66-12.67,27.39,27.39,0,0,1,2.66-12.65A25.49,25.49,0,0,1,947.17,127a29.6,29.6,0,0,1,8.7-1.44h56.66v16.65H955.87a9.55,9.55,0,0,0-7.39,2.88,10.8,10.8,0,0,0-2.66,7.62,10.52,10.52,0,0,0,2.66,7.58,9.71,9.71,0,0,0,7.39,2.79h38.42a28.91,28.91,0,0,1,5.69.73,28.73,28.73,0,0,1,11.65,5.64,23.52,23.52,0,0,1,4.77,5.15,25.26,25.26,0,0,1,3.3,6.91A29.75,29.75,0,0,1,1020.92,190.39Z"></path><path class="cls-1" d="M1141.6,217.41h-16.78V162.73l-29.51,51.92a7.23,7.23,0,0,1-3,3,8.94,8.94,0,0,1-4.2,1,8.42,8.42,0,0,1-4.06-1,7.33,7.33,0,0,1-3-3l-29.64-51.92v54.68h-16.65v-84.7a8.26,8.26,0,0,1,1.7-5.12,8.16,8.16,0,0,1,4.45-3,8.76,8.76,0,0,1,2.69-.23,9.11,9.11,0,0,1,2.59.58,8.05,8.05,0,0,1,2.28,1.34,7.93,7.93,0,0,1,1.72,2.08l37.9,65.88,37.9-65.88a8.16,8.16,0,0,1,4.07-3.45,8.61,8.61,0,0,1,5.41-.32,8.35,8.35,0,0,1,4.42,3,8.16,8.16,0,0,1,1.73,5.12Z"></path><path class="cls-1" d="M1251,217.41h-16.65V194.87h-58.51v22.54H1159.2V171.5a48.32,48.32,0,0,1,3.46-18.5,43,43,0,0,1,9.6-14.53,43.8,43.8,0,0,1,14.53-9.48,48.48,48.48,0,0,1,18.32-3.39h37.51a8.31,8.31,0,0,1,7.75,5.12A8.55,8.55,0,0,1,1251,134Zm-75.16-39.18h58.51v-36h-29.25c-.52,0-1.6.07-3.24.22a32.83,32.83,0,0,0-5.7,1.12,36.39,36.39,0,0,0-6.81,2.75,24.05,24.05,0,0,0-6.6,5.12,26.14,26.14,0,0,0-5,8.17,32.1,32.1,0,0,0-2,11.87Z"></path><path class="cls-1" d="M1362.08,156.46a33.89,33.89,0,0,1-1.41,10.18,28.25,28.25,0,0,1-3.8,7.9,26.94,26.94,0,0,1-5.54,5.86,32.76,32.76,0,0,1-6.56,4,31.51,31.51,0,0,1-6.92,2.28,33.11,33.11,0,0,1-6.56.7l34.76,30h-25.73l-34.7-30h-12V170.73h37.65a18.78,18.78,0,0,0,5.73-1.31,14.06,14.06,0,0,0,4.48-2.85,12,12,0,0,0,2.91-4.32,15.14,15.14,0,0,0,1-5.79V146a5.27,5.27,0,0,0-.35-2.15,2.59,2.59,0,0,0-.9-1.08,2.52,2.52,0,0,0-1.15-.42c-.41,0-.78-.06-1.12-.06H1287v75.16h-16.65V134a8.55,8.55,0,0,1,.64-3.27,8.77,8.77,0,0,1,1.76-2.69,8.15,8.15,0,0,1,2.66-1.79,8.48,8.48,0,0,1,3.33-.64h63.19a20,20,0,0,1,9.41,2,19.16,19.16,0,0,1,6.24,5,19.8,19.8,0,0,1,3.46,6.57,23.07,23.07,0,0,1,1,6.59Z"></path><path class="cls-1" d="M1461.06,142.25h-36.68v75.16h-16.65V142.25H1371V125.6h90.08Z"></path><path class="cls-1" d="M1458.13,282.3a2.92,2.92,0,0,0-2.92,2.86l-132.35-1.66a5.32,5.32,0,0,0-10-.13l-136.23-1.7a7.83,7.83,0,1,0,0,7.12l136.23-1.71a5.32,5.32,0,0,0,10-.13l132.35-1.66a2.93,2.93,0,1,0,2.92-3Z"></path><path class="cls-1" d="M816.35,281h29.33V262.21H854v46.06h-8.35V289.45H816.35v18.82H808V262.21h8.35Zm121.43,8.61a20.28,20.28,0,0,1-1.44,7.74,18.42,18.42,0,0,1-4,6.1,18,18,0,0,1-6.09,4,20.16,20.16,0,0,1-7.66,1.43h-11.3a20.38,20.38,0,0,1-7.68-1.43,18,18,0,0,1-6.1-4,18.44,18.44,0,0,1-4-6.1,20.1,20.1,0,0,1-1.46-7.74v-8.8a20.14,20.14,0,0,1,1.46-7.72A18,18,0,0,1,899.59,263a20,20,0,0,1,7.68-1.45h11.3a19.79,19.79,0,0,1,7.66,1.45,18,18,0,0,1,10.11,10.1,20.32,20.32,0,0,1,1.44,7.72Zm-8.35-8.8a12.07,12.07,0,0,0-.79-4.48,9.61,9.61,0,0,0-5.65-5.65,11.9,11.9,0,0,0-4.42-.79h-11.3a12,12,0,0,0-4.45.79,10,10,0,0,0-3.45,2.21,9.7,9.7,0,0,0-2.23,3.44,12.07,12.07,0,0,0-.79,4.48v8.8a12.07,12.07,0,0,0,.79,4.48,9.61,9.61,0,0,0,2.23,3.44,10,10,0,0,0,3.45,2.21,12,12,0,0,0,4.45.79h11.24a12,12,0,0,0,4.45-.79,10,10,0,0,0,3.45-2.21,9.74,9.74,0,0,0,2.23-3.44,12.07,12.07,0,0,0,.79-4.48Zm95.86,27.43h-8.41V280.84l-14.81,26.05a3.65,3.65,0,0,1-1.53,1.51,4.46,4.46,0,0,1-2.1.51,4.23,4.23,0,0,1-2-.51,3.74,3.74,0,0,1-1.49-1.51L980,280.84v27.43h-8.35V265.78a4.18,4.18,0,0,1,5.73-3.9,3.85,3.85,0,0,1,1.14.67,4.19,4.19,0,0,1,.87,1l19,33.05,19-33.05a4.14,4.14,0,0,1,2-1.73,4.35,4.35,0,0,1,2.72-.16,4.19,4.19,0,0,1,2.21,1.51,4.07,4.07,0,0,1,.87,2.57Zm77,0h-30.13a13.26,13.26,0,0,1-3.79-.61,11.07,11.07,0,0,1-6.73-5.64,11.67,11.67,0,0,1-1.17-5.47V266.42a4.32,4.32,0,0,1,.32-1.64,4.56,4.56,0,0,1,.88-1.35,4.16,4.16,0,0,1,1.34-.9,4.36,4.36,0,0,1,1.67-.32h37.61v8.35H1068.8v26a3.38,3.38,0,0,0,.87,2.5,3.43,3.43,0,0,0,2.54.87h30.06Zm-3.76-18.82h-26.37V281h26.37Z"></path><path class="cls-1" d="M452.14,288.15a2.92,2.92,0,0,0,2.92-2.86L587.41,287a5.32,5.32,0,0,0,10.05.13l136.23,1.71a7.84,7.84,0,1,0,0-7.12l-136.23,1.7a5.32,5.32,0,0,0-10.05.13l-132.35,1.66a2.93,2.93,0,1,0-2.92,3Z"></path></g></g></svg>
