<svg xmlns="http://www.w3.org/2000/svg" viewBox="0 0 1346 398.89"><g id="Camada_2" data-name="Camada 2"><g id="Layer_1" data-name="Layer 1"><polygon points="328.54 154.48 327.44 154.48 327.44 230.32 175.72 393.89 23.99 230.32 23.99 154.79 76.32 67.57 116.67 168.35 234.77 168.35 275.11 67.57 327.6 155.05 328.54 154.48 327.44 154.48 328.54 154.48 329.49 153.92 274.72 62.64 233.28 166.16 118.16 166.16 76.71 62.64 21.79 154.18 21.79 231.19 175.72 397.12 329.64 231.19 329.64 154.18 329.49 153.92 328.54 154.48"></polygon><path d="M281.05,65.58h0L224.69,33l-6.41-3.7L175.71,4.76,130,31.17l0,0L70.4,65.58l-.35.2-65,37.52V300.14l.47.44.12.13,166.41,96.07.73.42,2.93,1.69,2.94-1.69.73-.42,167-96.42V103.3Zm62.39,233.08-2.66,1.54L233.65,362.05l-.14.08L179.35,393.4l-3.64,2.1-3.63-2.1-54.16-31.26-.12-.08h0L8,298.66V105L71.17,68.52h0l60.6-35,.08,0L175.7,8.16h0l40.72,23.51,6.35,3.67,57.12,33,.34.2h0L343.44,105Z"></path><polygon points="179.38 396.78 178.65 397.2 172.78 397.2 172.05 396.78 172.08 393.4 172.55 343.52 172.57 340.58 172.83 313.56 172.89 306.76 174.34 152.58 174.37 149.64 174.89 93.86 174.94 88.6 174.97 86.13 174.98 84.58 175.7 8.16 175.72 6.46 175.73 8.16 176.44 82.72 176.44 82.73 176.48 87.98 176.51 90.59 176.52 91.87 177.06 149.64 177.09 152.58 178.54 306.73 178.6 313.53 178.86 340.58 178.88 343.52 179.35 393.4 179.38 396.78"></polygon><polygon points="178.76 310.69 117.48 364.91 175.23 306.95 178.76 310.69"></polygon><polygon points="234.06 364.81 172.8 310.59 176.32 306.85 234.06 364.81"></polygon><polygon points="224.69 33.04 222.8 35.34 178.09 89.95 177.02 91.26 176.52 91.87 174.89 93.86 129.22 149.64 126.82 152.58 65.67 227.28 63.78 229.57 7.99 297.72 6.52 299.51 7.99 297.63 62.46 228.14 64.29 225.8 123.49 150.28 125.58 147.61 173.38 86.61 174.35 85.38 174.98 84.58 176.44 82.72 216.45 31.67 218.28 29.34 224.69 33.04"></polygon><polygon points="346.38 295.51 346.38 298.33 342.04 301.81 340.78 300.2 286.44 230.87 284.61 228.53 225.09 152.58 222.78 149.64 177.02 91.26 176.51 90.59 174.94 88.6 173.38 86.61 131.78 33.52 129.95 31.19 129.98 31.17 131.86 33.48 174.35 85.38 174.97 86.13 176.48 87.98 178.09 89.95 225.66 148.06 227.8 150.66 288.29 224.56 290.17 226.85 343.44 291.92 346.38 295.51"></polygon><circle cx="175.71" cy="87.77" r="6.46"></circle><circle cx="175.71" cy="312.43" r="6.46"></circle><circle cx="175.72" cy="6.46" r="6.46"></circle><circle cx="75.32" cy="66.08" r="6.46"></circle><circle cx="6.47" cy="299.51" r="6.47"></circle><circle cx="115.6" cy="165.6" r="7.89"></circle><circle cx="234.06" cy="164.42" r="7.89"></circle><circle cx="343.44" cy="104.76" r="6.46"></circle><circle cx="218.23" cy="350.26" r="6.46"></circle><circle cx="344.96" cy="299.51" r="6.47"></circle><path d="M526.55,115.71,512.39,195a8,8,0,0,1-2.12,4.07,7.53,7.53,0,0,1-4,2.18,7.92,7.92,0,0,1-4.58-.53,7.42,7.42,0,0,1-3.39-2.95l-28.07-46.12-28.13,46.12a7,7,0,0,1-2.74,2.65,7.77,7.77,0,0,1-3.75.95,7.53,7.53,0,0,1-7.49-6.37l-14.27-79.27h15.57l10.14,55.85L463.73,133a7,7,0,0,1,2.74-2.65,7.74,7.74,0,0,1,3.75-1,7.57,7.57,0,0,1,3.72,1,8,8,0,0,1,2.83,2.65l24.06,38.57L511,115.71Z"></path><path d="M627.75,166.08a37.14,37.14,0,0,1-2.65,14.21,33,33,0,0,1-18.55,18.55,37,37,0,0,1-14.07,2.63H571.72a37.19,37.19,0,0,1-14.09-2.63,33.41,33.41,0,0,1-11.21-7.34,34,34,0,0,1-7.4-11.21,36.78,36.78,0,0,1-2.69-14.21V149.92A36.93,36.93,0,0,1,539,135.73a33.22,33.22,0,0,1,18.61-18.55,36.82,36.82,0,0,1,14.09-2.65h20.76a36.64,36.64,0,0,1,14.07,2.65,34,34,0,0,1,11.18,7.35,33.34,33.34,0,0,1,7.37,11.2,37.29,37.29,0,0,1,2.65,14.19Zm-15.33-16.16a22.25,22.25,0,0,0-1.45-8.23,17.8,17.8,0,0,0-10.38-10.38,22.08,22.08,0,0,0-8.11-1.45H571.72a22.19,22.19,0,0,0-8.16,1.45,18.33,18.33,0,0,0-6.34,4.07,17.77,17.77,0,0,0-4.1,6.31,22.25,22.25,0,0,0-1.45,8.23v16.16a22.25,22.25,0,0,0,1.45,8.23,17.85,17.85,0,0,0,4.1,6.31,18.48,18.48,0,0,0,6.34,4.07,22.19,22.19,0,0,0,8.16,1.44h20.65a22.23,22.23,0,0,0,8.16-1.44,18.48,18.48,0,0,0,6.34-4.07,18,18,0,0,0,4.1-6.31,22.25,22.25,0,0,0,1.45-8.23Z"></path><path d="M720.59,200.29h-70a8,8,0,0,1-3.07-.59,7.67,7.67,0,0,1-2.45-1.63,7.33,7.33,0,0,1-1.62-2.44,8,8,0,0,1-.59-3.07V115.71h15.34V185h62.34Z"></path><path d="M808.64,131H747.19v69.25H731.85V123.44a7.88,7.88,0,0,1,2.21-5.49,7.26,7.26,0,0,1,2.45-1.65,8,8,0,0,1,3.07-.59h69.06Zm-6.84,34.68H753.32V150.27H801.8Z"></path><path d="M940.52,175.4a26.92,26.92,0,0,1-1.15,8.17,24.39,24.39,0,0,1-3,6.39,20.13,20.13,0,0,1-4.42,4.72,26.53,26.53,0,0,1-10.77,5,25.77,25.77,0,0,1-5.27.59H856.71V185h59.16a9,9,0,0,0,6.87-2.59,9.73,9.73,0,0,0,2.44-7,11.32,11.32,0,0,0-.64-3.9,9.11,9.11,0,0,0-1.86-3.06,8.15,8.15,0,0,0-2.95-2,10.2,10.2,0,0,0-3.86-.71H880.6a27.44,27.44,0,0,1-8-1.32,24.16,24.16,0,0,1-8-4.28,23.3,23.3,0,0,1-6.13-7.73A25.36,25.36,0,0,1,856,140.72a25.22,25.22,0,0,1,2.45-11.65,23.43,23.43,0,0,1,14.13-12,27.15,27.15,0,0,1,8-1.33h52.19V131H880.6a8.84,8.84,0,0,0-6.82,2.66,10,10,0,0,0-2.44,7,9.71,9.71,0,0,0,2.44,7,9,9,0,0,0,6.82,2.56H916a27.31,27.31,0,0,1,5.24.68A26.74,26.74,0,0,1,932,156.14a22.2,22.2,0,0,1,4.39,4.75,23.33,23.33,0,0,1,3,6.37A27.25,27.25,0,0,1,940.52,175.4Z"></path><path d="M1051.7,200.29h-15.46V149.92l-27.19,47.83a6.68,6.68,0,0,1-2.8,2.77,8.2,8.2,0,0,1-3.86.95,7.74,7.74,0,0,1-3.75-.95,6.77,6.77,0,0,1-2.74-2.77l-27.31-47.83v50.37H953.26v-78a7.61,7.61,0,0,1,1.56-4.72,7.51,7.51,0,0,1,4.1-2.77,8,8,0,0,1,2.48-.21,8.53,8.53,0,0,1,2.39.53,7.27,7.27,0,0,1,2.09,1.24,7.09,7.09,0,0,1,1.59,1.92l34.92,60.69,34.91-60.69a7.53,7.53,0,0,1,3.75-3.19,7.91,7.91,0,0,1,5-.29,7.65,7.65,0,0,1,4.07,2.77,7.52,7.52,0,0,1,1.6,4.72Z"></path><path d="M1152.49,200.29h-15.33V179.52h-53.91v20.77h-15.34V158A44.7,44.7,0,0,1,1071.1,141a39.71,39.71,0,0,1,8.85-13.39,40.2,40.2,0,0,1,13.38-8.72,44.47,44.47,0,0,1,16.87-3.13h34.56a7.77,7.77,0,0,1,3,.59,7.56,7.56,0,0,1,4.13,4.13,7.77,7.77,0,0,1,.59,3Zm-69.24-36.1h53.91V131h-27c-.47,0-1.46.07-3,.21a30.66,30.66,0,0,0-5.25,1,33.21,33.21,0,0,0-6.28,2.54,22,22,0,0,0-6.07,4.72,24.06,24.06,0,0,0-4.57,7.52,29.51,29.51,0,0,0-1.8,10.94Z"></path><path d="M1254.82,144.14a31,31,0,0,1-1.3,9.37,26,26,0,0,1-3.51,7.29,24.77,24.77,0,0,1-5.1,5.4,30.91,30.91,0,0,1-6,3.68,29.34,29.34,0,0,1-6.37,2.1,30.86,30.86,0,0,1-6,.64l32,27.67h-23.71l-32-27.67h-11V157.29h34.68a17.76,17.76,0,0,0,5.28-1.21,13.17,13.17,0,0,0,4.13-2.62,11.23,11.23,0,0,0,2.68-4,14.17,14.17,0,0,0,.94-5.34v-9.68a4.66,4.66,0,0,0-.32-2,2.34,2.34,0,0,0-1.89-1.39,9.58,9.58,0,0,0-1-.06h-50.6v69.25H1170.3V123.44a7.77,7.77,0,0,1,.59-3,8.07,8.07,0,0,1,1.62-2.48,7.26,7.26,0,0,1,2.45-1.65,8,8,0,0,1,3.07-.59h58.21a18.46,18.46,0,0,1,8.67,1.86,17.57,17.57,0,0,1,5.75,4.66,18,18,0,0,1,3.19,6,21.15,21.15,0,0,1,1,6.08Z"></path><path d="M1346,131h-33.79v69.25h-15.34V131H1263V115.71h83Z"></path><path d="M421.47,283.81h-7.63V241.72h7.63Z"></path><path d="M496.48,280.55a3.63,3.63,0,0,1-.31,1.52,3.69,3.69,0,0,1-.82,1.22,3.89,3.89,0,0,1-1.21.81,3.78,3.78,0,0,1-1.5.29,4,4,0,0,1-1.42-.26,3.38,3.38,0,0,1-1.28-.85l-27.88-29.11v29.64h-7.63V245a3.68,3.68,0,0,1,.66-2.13,4.08,4.08,0,0,1,1.69-1.42,3.86,3.86,0,0,1,2.23-.22,3.6,3.6,0,0,1,2,1.07l27.88,29.08V241.72h7.63Z"></path><path d="M571.38,266.2a18.32,18.32,0,0,1-1.33,7.07,16.64,16.64,0,0,1-9.26,9.22,18.34,18.34,0,0,1-7,1.32H533.17a3.82,3.82,0,0,1-1.52-.3,3.64,3.64,0,0,1-1.22-.8,3.94,3.94,0,0,1-.81-1.22,4,4,0,0,1-.29-1.53V245.57a3.86,3.86,0,0,1,1.1-2.73,3.55,3.55,0,0,1,1.22-.82,3.82,3.82,0,0,1,1.52-.3h20.61a18.34,18.34,0,0,1,7,1.32,16.62,16.62,0,0,1,9.26,9.23,18.37,18.37,0,0,1,1.33,7.06Zm-7.63-6.87a11.13,11.13,0,0,0-.72-4.08,8.8,8.8,0,0,0-2-3.15,9.24,9.24,0,0,0-3.15-2,11,11,0,0,0-4.06-.72H537v26.83h16.82a11,11,0,0,0,4.06-.72,9.24,9.24,0,0,0,3.15-2,8.76,8.76,0,0,0,2-3.14,11.11,11.11,0,0,0,.72-4.09Z"></path><path d="M644.14,280a4,4,0,0,1-.29,1.53,3.8,3.8,0,0,1-.82,1.22,3.94,3.94,0,0,1-1.24.8,3.74,3.74,0,0,1-1.49.3H623.1a23.9,23.9,0,0,1-4.93-.53,22.17,22.17,0,0,1-4.83-1.63,20.9,20.9,0,0,1-4.39-2.8,18.36,18.36,0,0,1-3.59-4,19.2,19.2,0,0,1-2.42-5.34,23.71,23.71,0,0,1-.88-6.71v-21h7.63v21a14.79,14.79,0,0,0,.89,5.46,12.13,12.13,0,0,0,2.28,3.73,10.93,10.93,0,0,0,3,2.35,16,16,0,0,0,3.13,1.26,14.34,14.34,0,0,0,2.61.51c.75.07,1.24.11,1.48.11h13.41V241.72h7.63Z"></path><path d="M717.49,271.42a13.21,13.21,0,0,1-.58,4.07,12,12,0,0,1-1.51,3.18,10.07,10.07,0,0,1-2.2,2.35,13.66,13.66,0,0,1-2.61,1.58,13,13,0,0,1-2.74.91,12.56,12.56,0,0,1-2.63.3H675.78v-7.63h29.44a4.45,4.45,0,0,0,3.42-1.3,4.84,4.84,0,0,0,1.22-3.46,5.53,5.53,0,0,0-.33-1.94,4.42,4.42,0,0,0-.92-1.52,4.13,4.13,0,0,0-1.47-1,5.17,5.17,0,0,0-1.92-.35H687.67a13.62,13.62,0,0,1-4-.66,11.92,11.92,0,0,1-4-2.13,11.66,11.66,0,0,1-3.05-3.84,12.7,12.7,0,0,1-1.22-5.81,12.57,12.57,0,0,1,1.22-5.8,11.66,11.66,0,0,1,3.05-3.84,11.79,11.79,0,0,1,4-2.15,13.62,13.62,0,0,1,4-.66h26v7.63h-26a4.38,4.38,0,0,0-3.39,1.32,5,5,0,0,0-1.22,3.5,4.83,4.83,0,0,0,1.22,3.47,4.46,4.46,0,0,0,3.39,1.28h17.61a13.18,13.18,0,0,1,2.61.34,12.75,12.75,0,0,1,2.74.95,13,13,0,0,1,2.6,1.63,11.24,11.24,0,0,1,2.19,2.36,11.77,11.77,0,0,1,1.51,3.17A13.72,13.72,0,0,1,717.49,271.42Z"></path><path d="M785.46,249.35H768.64v34.46H761V249.35H744.17v-7.63h41.29Z"></path><path d="M857.16,255.87a15.54,15.54,0,0,1-.64,4.66,13.59,13.59,0,0,1-1.75,3.63,12,12,0,0,1-2.54,2.68,15,15,0,0,1-3,1.84,14.52,14.52,0,0,1-3.17,1,14.82,14.82,0,0,1-3,.32L859,283.81h-11.8L831.28,270h-5.49v-7.63h17.26a9,9,0,0,0,2.62-.6,6.53,6.53,0,0,0,2.06-1.31,5.49,5.49,0,0,0,1.33-2,7,7,0,0,0,.47-2.65v-4.82a2.32,2.32,0,0,0-.16-1,1.13,1.13,0,0,0-.94-.69l-.51,0H822.74v34.46h-7.63V245.57a3.86,3.86,0,0,1,1.1-2.73,3.55,3.55,0,0,1,1.22-.82,3.78,3.78,0,0,1,1.52-.3h29a9.12,9.12,0,0,1,4.31.93,8.69,8.69,0,0,1,2.86,2.32,9,9,0,0,1,1.59,3,10.7,10.7,0,0,1,.48,3Z"></path><path d="M896.55,283.81h-7.63V241.72h7.63Z"></path><path d="M967.55,283.81H940a12.26,12.26,0,0,1-3.46-.56,10,10,0,0,1-3.48-1.84,10.14,10.14,0,0,1-2.67-3.31,10.73,10.73,0,0,1-1.07-5V245.57a3.86,3.86,0,0,1,1.1-2.73,3.55,3.55,0,0,1,1.22-.82,3.82,3.82,0,0,1,1.52-.3h34.37v7.63H937v23.74a3.08,3.08,0,0,0,.79,2.29,3.14,3.14,0,0,0,2.32.8h27.47Zm-3.44-17.2H940v-7.69h24.09Z"></path><path d="M1039.25,271.42a13.52,13.52,0,0,1-.57,4.07,12.65,12.65,0,0,1-1.51,3.18A10.33,10.33,0,0,1,1035,281a13.66,13.66,0,0,1-2.61,1.58,12.77,12.77,0,0,1-2.74.91,12.56,12.56,0,0,1-2.63.3H997.55v-7.63H1027a4.44,4.44,0,0,0,3.42-1.3,4.84,4.84,0,0,0,1.22-3.46,5.76,5.76,0,0,0-.32-1.94,4.61,4.61,0,0,0-.93-1.52,4.13,4.13,0,0,0-1.47-1,5.13,5.13,0,0,0-1.92-.35h-17.55a13.62,13.62,0,0,1-4-.66,12,12,0,0,1-4-2.13,11.66,11.66,0,0,1-3.05-3.84,12.7,12.7,0,0,1-1.22-5.81,12.57,12.57,0,0,1,1.22-5.8,11.66,11.66,0,0,1,3.05-3.84,11.89,11.89,0,0,1,4-2.15,13.62,13.62,0,0,1,4-.66h26v7.63h-26a4.38,4.38,0,0,0-3.39,1.32,5,5,0,0,0-1.21,3.5,4.83,4.83,0,0,0,1.21,3.47,4.46,4.46,0,0,0,3.39,1.28H1027a13.18,13.18,0,0,1,2.61.34,12.56,12.56,0,0,1,2.74.95,12.7,12.7,0,0,1,2.6,1.63,11,11,0,0,1,2.19,2.36,11.48,11.48,0,0,1,1.51,3.17A13.72,13.72,0,0,1,1039.25,271.42Z"></path><path d="M1343.3,260.07a2.7,2.7,0,0,0-2.69,2.63l-121.93-1.53a4.9,4.9,0,0,0-9.25-.11l-125.51-1.58a7.22,7.22,0,1,0,0,6.56l125.51-1.57a4.9,4.9,0,0,0,9.25-.12l121.93-1.52a2.7,2.7,0,1,0,2.69-2.76Z"></path></g></g></svg>